<?xml version="1.0" standalone="no"?>
<!DOCTYPE svg PUBLIC "-//W3C//DTD SVG 20010904//EN"
 "http://www.w3.org/TR/2001/REC-SVG-20010904/DTD/svg10.dtd">
<svg version="1.0" xmlns="http://www.w3.org/2000/svg"
 width="700.000000pt" height="700.000000pt" viewBox="0 0 700.000000 700.000000"
 preserveAspectRatio="xMidYMid meet">
<metadata>
Created by potrace 1.11, written by Peter Selinger 2001-2013
</metadata>
<g transform="translate(0.000000,700.000000) scale(0.100000,-0.100000)"
fill="#000000" stroke="none">
<path d="M3970 6804 c-140 -113 -219 -145 -380 -153 -157 -8 -189 -22 -316
-142 -52 -49 -108 -96 -124 -104 l-30 -16 0 41 0 40 -45 0 -45 0 0 -194 c0
-106 -3 -221 -6 -255 l-7 -61 55 0 55 0 -5 51 c-5 50 -4 51 49 102 30 29 83
93 118 142 73 103 134 170 172 190 15 8 68 23 119 34 156 35 273 102 360 208
42 50 107 163 93 162 -4 0 -33 -20 -63 -45z"/>
<path d="M3000 5844 c-81 -10 -188 -38 -260 -68 -77 -33 -170 -90 -170 -105 0
-4 62 -143 138 -307 l138 -299 234 0 234 0 139 305 139 305 -34 28 c-46 39
-180 102 -258 121 -67 16 -238 27 -300 20z"/>
<path d="M1626 4863 c81 -142 116 -294 94 -412 -22 -120 -63 -202 -159 -319
-113 -137 -394 -322 -663 -438 -49 -20 -87 -39 -85 -40 1 -2 140 12 307 31
806 90 1303 119 1940 112 594 -7 965 -37 1559 -127 112 -17 205 -29 208 -26 8
8 -113 231 -183 338 -296 448 -699 754 -1212 918 l-125 40 -862 0 -863 0 44
-77z"/>
<path d="M782 3585 c2 -2 55 -29 118 -62 138 -71 229 -129 332 -211 407 -329
577 -812 513 -1467 -36 -379 -111 -725 -305 -1404 -44 -156 -79 -286 -76 -288
2 -2 44 39 92 92 219 236 556 516 865 718 763 498 1618 772 2694 863 236 20
878 23 1125 6 85 -6 155 -10 156 -9 1 1 -26 72 -60 157 -277 688 -598 1092
-1176 1477 -58 38 -122 80 -144 93 l-39 23 -786 4 c-1294 5 -3311 10 -3309 8z"/>
<path d="M3145 1176 c-94 -30 -227 -90 -269 -121 -17 -13 -20 -35 -27 -207 -4
-106 -8 -230 -9 -275 l0 -81 233 -4 c127 -2 233 -3 235 -2 4 2 -25 567 -34
662 -3 38 -10 62 -17 61 -7 0 -57 -15 -112 -33z"/>
</g>
</svg>
