<?xml version="1.0" encoding="UTF-8"?>
<svg width="110px" height="110px" viewBox="0 0 110 110" version="1.1" xmlns="http://www.w3.org/2000/svg" xmlns:xlink="http://www.w3.org/1999/xlink">
    <!-- Generator: Sketch 52.5 (67469) - http://www.bohemiancoding.com/sketch -->
    <title>barrelman-icon</title>
    <desc>Created with Sketch.</desc>
    <g id="barrelman-icon" stroke="none" stroke-width="1" fill="none" fill-rule="evenodd">
        <g id="Group-18">
            <g id="Group-15" fill="#00ADEC">
                <rect id="Rectangle" x="0" y="0" width="110" height="110" rx="29"></rect>
            </g>
            <path d="M68.7250124,61.4351216 L65.1258697,85.6330776 L87.2016445,89.9344262 L99,89.9344262 L99,92.9508197 L57.2657563,92.9508197 L57.5989889,101.100759 C57.0117405,101.700253 56.2247384,102 55.2379825,102 C54.2512266,102 53.4629696,101.694174 52.8732115,101.082521 L53.2141406,92.9508197 L12,92.9508197 L12,89.9344262 L23.6621476,89.9344262 L45.724589,85.5676666 L40.7810643,55.2725146 C40.8350388,55.2451782 40.8892643,55.2180143 40.9437376,55.1910234 L54.6502295,22.7042048 L54.7641821,14.4393709 C54.9878227,14.2040027 55.1557601,14.0863186 55.2679942,14.0863186 C55.3802283,14.0863186 55.5400283,14.1864787 55.747394,14.3867991 L55.8387181,22.6892535 L62.8556825,39.4654285 C63.5345714,38.625121 63.9614311,37.9319139 64.7015384,37.8947564 C65.4374248,38.3767449 65.5417591,39.108944 65.0145414,40.0913536 C65.3884399,40.3422317 65.7786198,40.5462178 66.1850812,40.703312 C66.605663,40.8774331 66.6290139,41.0298006 66.2551338,41.1604143 L65.7478393,41.2070198 L65.8603571,41.6681919 C65.900805,41.5492422 65.9459988,41.4932084 65.9959386,41.5000905 C66.0458784,41.5069726 66.0940999,41.5532654 66.1406032,41.6389689 L68.7328744,41.8609695 L69.0036632,41.7059546 L71.3058239,41.9433095 C71.5689956,41.7779928 71.7879025,41.6676125 71.9625444,41.6121688 C72.1371864,41.5567251 72.3402061,41.5527809 72.5716036,41.6003362 L72.940118,41.8371349 L73.2257749,42.1552449 L74.1823512,42.2492432 C74.5560437,42.0376083 74.8902886,41.9452944 75.185086,41.9723014 C75.4798834,41.9993084 75.7125241,42.1585657 75.883008,42.4500733 L80.2289781,42.9307923 L80.4493055,42.7272024 C81.1720517,42.8173672 81.5355439,42.8664402 81.5397819,42.8744214 C81.9038776,43.3823249 81.8409403,44.6644349 81.1528518,45.2908354 L80.0661965,45.0512058 C80.0081047,44.9402563 79.9542984,44.8643458 79.9047777,44.823474 C79.684244,44.7581221 78.207441,44.4928251 75.4743689,44.0275832 C75.3128327,44.1528588 75.1704294,44.2660888 75.047159,44.3672732 C74.8622534,44.5190497 74.7637169,44.6094779 74.5387289,44.711221 C74.4323473,44.7593285 75.018593,45.12595 74.8288758,45.3231994 C74.777027,45.3771067 74.5734745,45.6819007 74.2182181,46.2375813 C73.3961126,47.2778727 72.7109397,47.9936549 72.1626995,48.3849279 C71.6144593,48.776201 70.3079447,49.5052268 68.2431556,50.5720052 C68.2753602,50.73996 68.3218297,50.9926663 68.3825641,51.3301243 C68.4337798,51.6146938 68.5077417,52.241184 68.6044498,53.2095948 L69.4244294,55.1700039 C69.4970498,55.2038663 69.5694491,55.2380362 69.641623,55.2725146 L68.8412526,60.6536092 L68.8324651,61.4269086 C68.7949646,61.4290228 68.759147,61.4317604 68.7250124,61.4351216 Z M61.821211,52.8231703 C61.8046858,52.7269856 61.7871607,52.6245532 61.7686065,52.5152256 C61.4885414,50.8649868 61.0438116,50.4804475 60.7855504,49.8403637 C60.6433379,49.4878991 60.4918537,48.6164817 60.4646165,48.2470518 C60.434306,47.8359373 60.6001853,47.7183131 60.6408154,47.566842 C60.6621526,47.487296 60.2925926,47.5870258 60.3185362,47.5014788 C60.3998806,47.2332524 60.7234126,46.9817232 61.1654346,46.5577417 C61.6391745,46.1033367 62.0108662,45.8362833 62.4827861,45.3677147 C62.5107762,45.3399233 62.633725,45.424803 62.8321142,45.3721792 C62.8910433,45.3565479 62.956795,45.2463955 63.0293691,45.041722 C62.889305,44.9775902 62.7460424,44.8961983 62.5995811,44.7975463 C62.4960152,44.7277874 62.0165879,44.167105 61.8987267,44.0355332 C61.8201526,43.9478186 61.727594,43.7521669 61.6210511,43.4485781 L61.6193017,43.4301323 L61.5419342,43.5141164 C61.33942,43.1519405 61.1917318,42.9133382 61.0988697,42.7983096 C60.8393486,42.7941334 60.5489322,42.7760879 60.2276203,42.7441729 C59.7456525,42.6963004 60.1341468,41.9730976 61.6679005,40.6989297 C62.1065486,40.3345221 62.4533442,39.9536611 62.7504248,39.594285 L55.8430165,23.0800373 L56.1583293,51.7457668 C55.8843725,51.7353325 55.5832668,51.7301154 55.2550123,51.7301154 C54.9267578,51.7301154 54.591717,51.7335153 54.2498897,51.740315 L54.6448436,23.0948345 L41.1445926,55.0928255 C46.629362,52.4470285 54.5347022,51.5226961 61.821211,52.8231703 Z M68.742716,54.8638884 C68.9052396,54.934133 69.0667611,55.0058527 69.2272338,55.0790551 L68.6531892,53.706628 C68.6556889,53.7325469 68.6582018,53.7586631 68.6607277,53.7849765 L68.742716,54.8638884 Z M61.3478499,59.9648597 C61.2639464,59.3657836 61.223401,58.860409 61.2262136,58.4487361 C61.234692,57.2077605 61.6611428,56.5131158 61.7760126,56.0021002 C61.8908823,55.4910845 61.9175605,55.7155534 62.0059152,54.980114 C62.0685645,54.4586387 62.0638656,54.2670991 61.9559853,53.6114758 C61.5866839,53.5437636 61.2137587,53.4818977 60.8372097,53.4258784 L60.1765933,59.8865143 C60.5671995,59.9098138 60.9576183,59.9359289 61.3478499,59.9648597 Z M68.8412001,56.2264517 L68.9125015,55.769669 C68.8776908,55.753781 68.8428374,55.7379619 68.8079413,55.7222117 L68.8392815,56.1346283 L68.8412001,56.2264517 Z M86.1692592,89.9344262 L65.0908172,85.8219735 C63.422413,86.4951749 60.4227088,88.046632 55.3097053,88.046632 C50.1891332,88.046632 47.3055018,86.4905783 45.7655996,85.8189897 L45.7631524,85.8039927 L24.8331538,89.9344262 L53.3406056,89.9344262 L53.3872701,88.8214045 C54.2040828,88.8963957 54.8209869,88.9338913 55.2379825,88.9338913 C55.6549781,88.9338913 56.2746218,88.8963957 57.0969139,88.8214045 L57.1424228,89.9344262 L86.1692592,89.9344262 Z M58.6830189,59.8111833 L59.3551883,53.2375621 C58.0062865,53.0947242 56.6131176,53.0233052 55.1756814,53.0233052 C53.5721025,53.0233052 52.0295497,53.1121879 50.5480233,53.2899533 L51.2186265,59.8441571 C53.7142933,59.7198868 56.2024241,59.7088955 58.6830189,59.8111832 Z M49.725811,59.9319405 L49.0677673,53.5004893 C46.3721668,53.9455532 43.890323,54.7019464 41.6222359,55.769669 L42.3679887,60.7548495 C44.8278149,60.3720469 47.2804231,60.0977438 49.7258133,59.9319403 Z M54.2634515,53.599437 C54.6585956,53.5869374 54.9678843,53.580464 55.1913178,53.5800168 C55.4147512,53.5795695 55.7388631,53.5859394 56.1636534,53.5991264 L56.1904858,59.1832078 C55.7575811,59.1756687 55.4276692,59.1718992 55.2007501,59.1718992 C54.9738311,59.1718992 54.6420357,59.170244 54.2053639,59.1669336 L54.2634515,53.599437 Z M56.1583062,19.447358 C56.1563842,19.5510356 56.1742909,15.8943769 56.1800446,15.0082665 C58.1106865,14.1292582 57.9017243,13.3147753 59.6234529,12.4271722 C61.3451814,11.539569 61.6623585,13.5268869 65.4822357,10 C64.9783198,11.1910998 63.9970798,13.5864901 60.4538483,14.1161683 C58.7140807,14.3762464 58.3233801,18.4270529 56.1583062,19.447358 Z M72.8640225,43.5594642 C72.0487786,43.3985124 71.6232503,43.3337263 71.5874375,43.3651061 C71.4964352,43.4448437 71.8147562,43.7368457 71.7394725,43.8332181 C71.4167702,44.2463166 70.7299756,44.9400062 70.3598957,45.2548338 C69.8998469,45.646198 69.0572655,46.1502999 67.8321515,46.7671396 L67.8534119,47.0977982 C69.5966689,46.5846616 70.6425632,46.1814652 70.9910947,45.888209 C71.5138921,45.4483248 72.2027887,44.6918523 72.5569805,44.2887549 C72.7931084,44.0200234 72.8954557,43.7769264 72.8640225,43.5594642 Z M66.0360444,42.2997596 C66.0472854,42.3253267 66.1416043,42.3782974 66.3623496,42.5375546 C66.4990986,42.6362126 66.2442903,42.8259218 66.1352941,42.9524884 C66.0715175,43.0265459 66.1532155,43.0520958 66.2356309,43.1657195 C66.2905745,43.2414685 66.2195992,43.3147788 66.022705,43.3856503 C66.1734703,43.3459688 66.260822,43.3362871 66.2847599,43.3566052 C66.4516746,43.49828 66.1878192,43.5476451 66.2617463,43.6810115 C66.3310719,43.8060766 66.3850401,43.9894693 66.4941082,44.2132773 C66.5172351,44.6574195 65.8454833,44.7204939 65.8985193,44.821231 C65.9135053,44.8496956 66.4254526,44.7448563 66.6472467,44.7326273 C67.1001348,44.7076565 69.1765751,43.6635265 69.6771406,43.3243018 C69.8409383,43.2132989 69.8816084,43.1118153 69.799151,43.0198508 L68.8067727,42.8420754 L68.638518,42.6068682 L66.0994821,42.2251254 C66.0919571,42.2600028 66.079188,42.2790931 66.061175,42.2823961 C66.0341554,42.2873507 66.0501694,42.2873807 66.0360444,42.2997596 Z" id="Combined-Shape" fill="#FFFFFF"></path>
        </g>
    </g>
</svg>