<?xml version="1.0" encoding="UTF-8"?>
<svg width="110px" height="110px" viewBox="0 0 110 110" version="1.1" xmlns="http://www.w3.org/2000/svg" xmlns:xlink="http://www.w3.org/1999/xlink">
    <!-- Generator: Sketch 52.5 (67469) - http://www.bohemiancoding.com/sketch -->
    <title>brain-icon</title>
    <desc>Created with Sketch.</desc>
    <g id="brain-icon" stroke="none" stroke-width="1" fill="none" fill-rule="evenodd">
        <g id="Group-15-Copy-3">
            <rect id="Rectangle" fill="#00ADEC" x="0" y="0" width="110" height="110" rx="29"></rect>
            <g id="Group-2" transform="translate(15.000000, 17.000000)">
                <path d="M26.2156682,12.1137159 L26.2156682,8.52009217 C26.2156682,3.8145752 30.0302434,8.64389445e-16 34.7357604,0 C39.4412774,-8.64389445e-16 43.2558526,3.8145752 43.2558526,8.52009217 L43.2558526,68.4523879 C43.2558526,73.1579049 39.4412774,76.9724801 34.7357604,76.9724801 C30.0302434,76.9724801 26.2156682,73.1579049 26.2156682,68.4523879 L26.2156682,64.9930624 C26.2073209,64.9452119 26.2029607,64.8963625 26.2029607,64.8468148 C26.2029607,64.3154307 26.6478886,63.8470949 27.1908329,63.8470949 C27.7126767,63.8470949 28.1439746,64.2797362 28.1767094,64.7851707 L28.1818433,64.7851707 L28.1818433,68.494251 C28.1818433,72.1138795 31.116132,75.0481681 34.7357604,75.0481681 C38.3553888,75.0481681 41.2896775,72.1138795 41.2896775,68.494251 L41.2896775,8.47822906 C41.2896775,4.85860062 38.3553888,1.924312 34.7357604,1.924312 C31.116132,1.924312 28.1818433,4.85860062 28.1818433,8.47822906 L28.1818433,12.1873093 L28.1713229,12.1873093 C28.1718605,12.201188 28.1721315,12.2151334 28.1721315,12.2291391 C28.1721315,12.7605232 27.7480437,13.1820059 27.2391226,13.1820059 C26.7302015,13.1820059 26.2079546,12.7605232 26.2079546,12.2291391 C26.2079546,12.1901507 26.2105829,12.1516291 26.2156682,12.1137159 Z" id="Combined-Shape" fill="#FFFFFF"></path>
                <path d="M49.5184623,73.9402205 L49.5184623,73.9371916 C65.7140026,69.9344713 77.7003057,55.5803277 77.7003057,38.48624 C77.7003057,21.3921524 65.7140026,7.0380088 49.5184623,3.0352885 L49.5184623,3.02987776 C49.5155321,3.02990472 49.5125988,3.02991823 49.5096624,3.02991823 C48.9689493,3.02991823 48.5051006,2.57176898 48.5051006,2.04256857 C48.5051006,1.51336816 48.9689493,1.05963979 49.5096624,1.05963979 C49.5125988,1.05963979 49.5155321,1.05965317 49.5184623,1.05967987 L49.5184623,1.05329228 C49.5286323,1.05567135 49.5388007,1.05805428 49.5489675,1.06044108 C49.6764237,1.06564584 49.7976173,1.09602994 49.9080193,1.14649406 C67.0032341,5.32770907 79.6664808,20.4596314 79.6664808,38.48624 C79.6664808,56.5035519 67.0162922,71.6291625 49.9344649,75.8195082 C49.8111434,75.8813456 49.6742702,75.9166724 49.5301542,75.9166724 C49.5256279,75.917511 49.5220452,75.9183496 49.5184623,75.9191878 L49.5184623,75.9165999 C48.980221,75.9099297 48.4989862,75.4437551 48.4989862,74.9161881 C48.4989862,74.3886212 48.980221,73.9465445 49.5184623,73.9402205 Z" id="Combined-Shape" fill="#FFFFFF"></path>
                <path d="M27.2132327,5.13149867 C18.7782452,6.42077158 15.4319856,11.1525319 17.1744537,19.3267795" id="Path-54" stroke="#FFFFFF" stroke-width="1.60542176" stroke-linecap="round"></path>
                <path d="M16.3847926,11.43548 C8.47699189,12.8321923 5.33987348,17.9582659 6.97343741,26.8137009" id="Path-54-Copy-2" stroke="#FFFFFF" stroke-width="1.60542176" stroke-linecap="round"></path>
                <path d="M18.3081599,30.2704186 C13.149172,31.1494387 11.1100676,34.4199747 12.1908469,40.0820264" id="Path-54-Copy-9" stroke="#FFFFFF" stroke-width="1.60542176" stroke-linecap="round" transform="translate(15.109103, 35.176222) rotate(97.000000) translate(-15.109103, -35.176222) "></path>
                <path d="M21.8310366,42.6370717 C17.7007781,43.3605444 16.0570802,45.9852047 16.8999429,50.5110524" id="Path-54-Copy-11" stroke="#FFFFFF" stroke-width="1.60542176" stroke-linecap="round" transform="translate(19.258351, 46.574062) scale(1, -1) rotate(264.000000) translate(-19.258351, -46.574062) "></path>
                <path d="M22.5114862,22.5844777 C19.9099022,24.4061263 17.6247724,27.0714291 20.5258787,31.0743365" id="Path-54-Copy-10" stroke="#FFFFFF" stroke-width="1.60542176" stroke-linecap="round" transform="translate(20.842296, 26.829407) scale(1, -1) rotate(-145.000000) translate(-20.842296, -26.829407) "></path>
                <path d="M26.4438364,52.0811596 C23.8422524,53.9028083 21.5571226,56.5681111 24.4582289,60.5710184" id="Path-54-Copy-13" stroke="#FFFFFF" stroke-width="1.60542176" stroke-linecap="round" transform="translate(24.774646, 56.326089) rotate(-145.000000) translate(-24.774646, -56.326089) "></path>
                <path d="M28.4884397,14.9780298 C24.8771752,15.8541088 23.4571993,19.1217121 24.228512,24.7808399" id="Path-54-Copy-12" stroke="#FFFFFF" stroke-width="1.60542176" stroke-linecap="round" transform="translate(26.256665, 19.879435) rotate(-78.000000) translate(-26.256665, -19.879435) "></path>
                <path d="M6.29432382,24.1363391 C2.04299362,26.802645 -0.0547523776,31.1711916 0.00108583132,37.241979 C0.0569240403,43.3127664 2.24120112,48.3519673 6.55391706,52.3595818" id="Path-54-Copy-5" stroke="#FFFFFF" stroke-width="1.60542176" stroke-linecap="round"></path>
                <path d="M16.3847926,48.959564 C8.47699189,50.3562763 5.33987348,55.48235 6.97343741,64.337785" id="Path-54-Copy-3" stroke="#FFFFFF" stroke-width="1.60542176" stroke-linecap="round" transform="translate(11.469355, 56.648674) scale(1, -1) translate(-11.469355, -56.648674) "></path>
                <path d="M43.5423203,19.8097768 C35.8452096,35.9823347 31.9966542,44.0686136 31.9966542,44.0686136 C26.1082607,45.8233236 25.212171,47.7317709 26.4857618,55.4064121" id="Path-54-Copy-4" stroke="#FFFFFF" stroke-width="1.60542176" stroke-linecap="round" transform="translate(34.761884, 37.608094) scale(1, -1) rotate(65.000000) translate(-34.761884, -37.608094) "></path>
                <path d="M50.9915826,30.85582 C50.7893911,31.2806487 48.7441745,31.6156982 43.5200363,34.3760437 C43.2531879,34.5170418 32.7752605,57.4182898 32.7752605,57.4182898 C34.3409428,61.5648663 33.7363482,67.3350023 28.1173164,67.4072831" id="Path-54-Copy-8" stroke="#FFFFFF" stroke-width="1.60542176" stroke-linecap="round" transform="translate(39.554449, 49.131552) rotate(65.000000) translate(-39.554449, -49.131552) "></path>
                <path d="M27.5264516,58.3707974 C19.0914642,59.6600703 15.7452045,64.3918306 17.4876727,72.5660783" id="Path-54-Copy" stroke="#FFFFFF" stroke-width="1.60542176" stroke-linecap="round" transform="translate(22.283318, 65.468438) scale(1, -1) translate(-22.283318, -65.468438) "></path>
                <ellipse id="Oval" stroke="#FFFFFF" stroke-width="1.60542176" cx="59.3129494" cy="36.8826467" rx="3.60465438" ry="3.52790534"></ellipse>
                <ellipse id="Oval-Copy-5" stroke="#FFFFFF" stroke-width="1.60542176" cx="63.9006913" cy="53.5600174" rx="3.60465438" ry="3.52790534"></ellipse>
                <path d="M42.8717547,4.36997035 L44.1707519,11.75359 C41.5844278,17.1238746 40.2912658,19.809017 40.2912658,19.809017 C34.4028723,21.563727 32.9167023,24.7508287 34.7803734,31.1468155" id="Path-54-Copy-6" stroke="#FFFFFF" stroke-width="1.60542176" stroke-linecap="round" transform="translate(39.097388, 17.758393) rotate(65.000000) translate(-39.097388, -17.758393) "></path>
                <path d="M50.2775722,9.05002696 L44.4439357,13.2632346 C38.2036142,26.6456472 35.0834535,33.3368536 35.0834535,33.3368536 C26.9644524,36.2926531 29.7565452,44.7604453 29.3681246,44.5793218" id="Path-54-Copy-7" stroke="#FFFFFF" stroke-width="1.60542176" stroke-linecap="round" transform="translate(39.741960, 26.816105) scale(1, -1) rotate(65.000000) translate(-39.741960, -26.816105) "></path>
                <path d="M41.328646,42.4349446 L43.5040686,48.6180746 C39.7228541,56.7269153 37.8322468,60.7813356 37.8322468,60.7813356 C39.6594739,68.3751375 33.6359934,70.7943242 33.2475728,70.6132007" id="Path-54-Copy-14" stroke="#FFFFFF" stroke-width="1.60542176" stroke-linecap="round" transform="translate(38.375821, 56.528751) scale(1, -1) rotate(65.000000) translate(-38.375821, -56.528751) "></path>
                <ellipse id="Oval-Copy-3" stroke="#FFFFFF" stroke-width="1.60542176" cx="55.3805991" cy="13.1494653" rx="3.60465438" ry="3.52790534"></ellipse>
                <ellipse id="Oval-Copy-4" stroke="#FFFFFF" stroke-width="1.60542176" cx="63.9006913" cy="22.7710254" rx="3.60465438" ry="3.52790534"></ellipse>
                <ellipse id="Oval-Copy-6" stroke="#FFFFFF" stroke-width="1.60542176" cx="55.3805991" cy="62.5401401" rx="3.60465438" ry="3.52790534"></ellipse>
            </g>
        </g>
    </g>
</svg>