<?xml version="1.0" encoding="UTF-8"?>
<svg width="1440px" height="258px" viewBox="0 0 1440 258" version="1.1" xmlns="http://www.w3.org/2000/svg" xmlns:xlink="http://www.w3.org/1999/xlink">
    <!-- Generator: Sketch 52.5 (67469) - http://www.bohemiancoding.com/sketch -->
    <title>Foremast-heroimage-1440</title>
    <desc>Created with Sketch.</desc>
    <defs>
        <rect id="path-1" x="0" y="0" width="1440" height="258"></rect>
        <linearGradient x1="87.9359387%" y1="31.2279389%" x2="13.2411339%" y2="52.5000281%" id="linearGradient-3">
            <stop stop-color="#6A737A" offset="0%"></stop>
            <stop stop-color="#14181D" offset="100%"></stop>
        </linearGradient>
        <path d="M337.56495,160.689195 L341.403193,169.853661 C341.636952,169.962481 341.869992,170.072299 342.1023,170.183117 L327.700181,266.87419 L425.999345,285.999693 L435,286 L435,291 L302.656947,291 L303.693523,316.1409 C301.823351,318.049848 299.316493,319.003798 296.172951,319.002751 C293.029408,319.001703 290.517901,318.026717 288.638429,316.077792 L289.681519,291 L157,291 L157,286 L168.000917,286 L265.822844,266.665698 L250.056459,170.183117 C250.230806,170.094942 250.405974,170.00733 250.581953,169.920283 L294.292206,66.454699 L294.656223,40.1384675 C295.368834,39.3888425 295.903944,39.0140232 296.261553,39.0140097 C296.619163,39.0139962 297.128318,39.332966 297.78902,39.970919 L298.07896,66.4096029 L320.130356,119.061105 C321.956575,116.748518 323.274782,114.946587 325.405032,114.839869 C327.756394,116.374763 328.089648,118.706641 326.404795,121.835503 C327.599503,122.634427 328.846246,123.284006 330.145023,123.784242 C331.488918,124.338703 331.563505,124.823956 330.368784,125.240002 L328.759972,125.387407 L329.120381,126.862486 C329.249794,126.483573 329.394279,126.30504 329.553836,126.326886 C329.713394,126.348733 329.867403,126.496104 330.015865,126.769001 L338.298356,127.472276 L339.163807,126.978159 L346.519315,127.730762 C347.360443,127.203845 348.060055,126.851965 348.618151,126.675122 C349.176248,126.498279 349.824941,126.485419 350.564232,126.636544 L351.741362,127.390205 L352.653626,128.402964 L355.709938,128.700947 C356.904268,128.026346 357.972382,127.731838 358.914278,127.817423 C359.856174,127.903009 360.599274,128.409901 361.143577,129.3381 L375.029102,130.862824 L375.733389,130.214069 C378.042574,130.500186 379.203931,130.655951 379.21746,130.681364 C380.380074,132.298498 380.177101,136.382096 377.977606,138.378181 L374.505879,137.616554 C374.320427,137.263266 374.148616,137.021571 373.990448,136.891467 C373.285895,136.683645 368.567607,135.840838 359.835585,134.363048 C359.319262,134.762286 358.86409,135.123131 358.470069,135.445582 C357.879037,135.929259 357.564061,136.217416 356.845031,136.541796 C356.505051,136.695174 358.377684,137.862001 357.771212,138.490516 C357.605466,138.662286 356.954629,139.633349 355.818702,141.403705 C353.190391,144.718224 351.000081,146.998985 349.247773,148.245987 C347.495465,149.49299 343.319827,151.816841 336.720859,155.21754 C336.823513,155.752426 336.971623,156.557225 337.165187,157.631936 C337.269157,158.2092 337.402411,159.228286 337.56495,160.689195 Z M316.166057,162.209787 C316.122952,161.958561 316.077801,161.694366 316.030558,161.41615 C315.13811,156.160569 313.717674,154.936466 312.893415,152.898185 C312.439534,151.775797 311.956788,149.000565 311.8703,147.823975 C311.774054,146.514624 312.304243,146.13975 312.434286,145.657256 C312.502579,145.403872 311.321616,145.722051 311.404636,145.449547 C311.66494,144.59513 312.699056,143.793539 314.112024,142.442516 C315.626381,140.994548 316.8144,140.143442 318.322963,138.650366 C318.412437,138.56181 318.805159,138.83197 319.439128,138.664074 C319.627441,138.614202 319.837692,138.263272 320.06988,137.611283 C319.622442,137.407229 319.164809,137.148206 318.69698,136.834215 C318.366169,136.612186 316.835125,134.82712 316.458728,134.408238 C316.207797,134.128983 315.91234,133.50597 315.572359,132.5392 L315.564756,132.458905 L315.307795,132.736913 C314.660748,131.583497 314.18887,130.823628 313.892159,130.457304 C313.062887,130.444051 312.134894,130.386634 311.10818,130.285051 C309.568109,130.132677 310.809638,127.829359 315.710829,123.771123 C317.434903,122.343572 318.714961,120.836773 319.801528,119.475536 L298.092468,67.6414239 L299.093818,158.951293 C298.220915,158.918095 297.261509,158.901516 296.215597,158.901556 C295.169686,158.901595 294.102151,158.912463 293.012992,158.93416 L294.275174,67.6859682 L251.215795,169.610883 C268.459334,161.304608 293.204516,158.325742 316.166057,162.209787 Z M338.279676,168.476065 C339.121646,168.827509 339.955542,169.191127 340.780743,169.567021 L337.737633,162.301072 C337.833728,163.22775 337.937977,164.277461 338.050382,165.450204 L338.279676,168.476065 Z M314.663029,185.055987 C314.404116,183.186421 314.27938,181.606127 314.288821,180.315105 C314.317728,176.3626 315.681339,174.149541 316.049118,172.521794 C316.416897,170.894047 316.501811,171.608938 316.785198,169.266443 C316.992152,167.555749 316.97033,166.959841 316.595916,164.715912 C315.284084,164.48862 313.958073,164.284172 312.617881,164.10257 L310.454313,184.794812 C311.857976,184.870494 313.260882,184.957553 314.663029,185.055987 Z M338.721613,178.51731 L339.776891,171.766446 C339.348412,171.571161 338.917903,171.379146 338.485364,171.190402 L338.617457,172.933557 L338.725395,178.198368 L338.721613,178.51731 Z M422.662367,286 L327.586676,267.477149 C322.265266,269.621496 312.698504,274.561556 296.393087,274.561556 C280.061894,274.561556 270.865042,269.605864 265.953786,267.467 L265.94617,267.420395 L171.662293,286 L289.88949,286 L290.262884,277.02294 C292.865113,277.262677 294.830446,277.382767 296.158884,277.38321 C297.487321,277.383652 299.461302,277.264875 302.080825,277.026878 L302.450793,286 L422.662367,286 Z M308.575926,184.700344 L310.754367,163.865862 C305.999829,163.30187 301.070254,163.019874 295.965641,163.019874 C290.323695,163.019874 284.91861,163.364363 279.750386,164.053341 L281.921976,184.817408 C290.836754,184.32615 299.721404,184.287129 308.575926,184.700344 Z M280.043972,184.927559 L277.888542,164.317994 C268.747842,165.698971 260.364739,168.181788 252.739232,171.766446 L255.117684,187.643162 C263.452433,186.347943 271.761198,185.442742 280.043981,184.927559 Z M293.056239,164.854729 C294.316484,164.81492 295.302908,164.794304 296.015511,164.792879 C296.728113,164.791455 297.761813,164.811742 299.116609,164.853739 L299.202187,182.637825 C297.821511,182.613815 296.769313,182.60181 296.045593,182.60181 C295.321874,182.60181 294.263669,182.596538 292.870979,182.585995 L293.056239,164.854729 Z M299.099565,56.0877905 C299.092983,56.4175411 299.16627,44.7876164 299.188534,41.9693554 C305.341197,39.1652437 304.67931,36.5757316 310.166659,33.7452004 C315.654008,30.9146691 316.655325,37.2338577 328.836642,26 C327.226463,29.7904508 324.090737,37.4131883 312.803813,39.1133398 C307.261803,39.9481338 305.999481,52.8332628 299.099565,56.0877905 Z M351.495701,132.875915 C348.891072,132.364479 347.53152,132.158759 347.417045,132.258756 C347.126158,132.512852 348.142829,133.442409 347.902142,133.749464 C346.87044,135.065651 344.674981,137.276049 343.492042,138.279313 C342.021523,139.526477 339.328572,141.133268 335.413189,143.099689 L335.480636,144.152801 C341.051436,142.515916 344.393864,141.230209 345.50792,140.295682 C347.179004,138.89389 349.381271,136.483526 350.513574,135.199147 C351.268442,134.342895 351.595818,133.568484 351.495701,132.875915 Z M329.680812,128.873764 C329.716692,128.955179 330.017982,129.123752 330.723073,129.630661 C331.159869,129.944685 330.345429,130.54928 329.996979,130.952553 C329.793092,131.188518 330.054095,131.269775 330.317263,131.631544 C330.492707,131.872724 330.26582,132.10632 329.636601,132.332333 C330.118384,132.205727 330.397503,132.174763 330.47396,132.239441 C331.007078,132.69043 330.163936,132.848043 330.399952,133.272705 C330.621278,133.670935 330.793449,134.254959 331.141615,134.967625 C331.21486,136.382179 329.068389,136.584054 329.237702,136.904823 C329.285543,136.99546 330.921469,136.660799 331.630163,136.621525 C333.077266,136.54133 339.713429,133.21275 341.313331,132.13159 C341.836859,131.777808 341.966956,131.454524 341.703623,131.161739 L338.53304,130.596979 L337.995777,129.848093 L329.883617,128.635962 C329.859522,128.747058 329.818695,128.807879 329.761135,128.818425 C329.674794,128.834245 329.725962,128.834317 329.680812,128.873764 Z" id="path-4"></path>
        <filter x="-8.6%" y="-8.2%" width="117.3%" height="116.4%" filterUnits="objectBoundingBox" id="filter-5">
            <feOffset dx="0" dy="0" in="SourceAlpha" result="shadowOffsetOuter1"></feOffset>
            <feGaussianBlur stdDeviation="8" in="shadowOffsetOuter1" result="shadowBlurOuter1"></feGaussianBlur>
            <feColorMatrix values="0 0 0 0 1   0 0 0 0 1   0 0 0 0 1  0 0 0 0.50110394 0" type="matrix" in="shadowBlurOuter1"></feColorMatrix>
        </filter>
    </defs>
    <g id="Foremast-heroimage-1440" stroke="none" stroke-width="1" fill="none" fill-rule="evenodd">
        <g id="Group">
            <mask id="mask-2" fill="white">
                <use xlink:href="#path-1"></use>
            </mask>
            <g id="Rectangle"></g>
            <path d="M185.800944,-31.5795074 C262.07647,-30.7547352 305.23311,-30.3423491 315.270863,-30.3423491 C362.366492,-7.47786069 398.548752,29.842099 423.817644,81.61753 C305.306667,70.93455 240.013002,65.9143417 126.278767,87.2807443 C207.555732,39.2647603 227.396458,-0.355323549 185.800944,-31.5795074 Z M109.060969,90.8279923 C147.151151,90.7721236 413.456396,86.1113872 429.816741,86.0873907 C498.595393,114.532479 569.557141,173.143287 617.308904,272.673212 C397.940339,229.042307 225.940339,284.624733 101.308904,439.420493 C167.553288,282.898161 187.628963,173.143287 109.060969,90.8279923 Z" id="Combined-Shape-Copy" fill="url(#linearGradient-3)" opacity="0.612909226" mask="url(#mask-2)" transform="translate(359.308904, 203.920493) rotate(-14.000000) translate(-359.308904, -203.920493) "></path>
            <g id="Combined-Shape" mask="url(#mask-2)">
                <use fill="black" fill-opacity="1" filter="url(#filter-5)" xlink:href="#path-4"></use>
                <use fill="#232323" fill-rule="evenodd" xlink:href="#path-4"></use>
            </g>
        </g>
    </g>
</svg>