<?xml version="1.0" encoding="UTF-8"?>
<svg width="38px" height="46px" viewBox="0 0 38 46" version="1.1" xmlns="http://www.w3.org/2000/svg" xmlns:xlink="http://www.w3.org/1999/xlink">
    <!-- Generator: Sketch 52.5 (67469) - http://www.bohemiancoding.com/sketch -->
    <title>Artboard</title>
    <desc>Created with Sketch.</desc>
    <g id="Artboard" stroke="none" stroke-width="1" fill="none" fill-rule="evenodd">
        <path d="M15.7030265,3.17070325 C16.7436737,2.64524453 16.7037706,2.05887728 17.8105401,1.53895523 C19.0118482,0.974622204 19.2418169,2.25347392 21.9007999,-1.8727242e-11 C21.5529522,0.763930834 20.8759189,2.30037073 18.3984626,2.62789526 C17.2860345,2.77496042 16.9485787,4.4857612 15.7434265,5.2728786 L15.7579404,6.02809971 L15.0855355,6.03898423 L15.0990093,2.57994164 L15.6917817,2.58558862 L15.7030265,3.17070325 Z M5.46328771,12.8532609 C12.4361173,12.8532609 16.2955043,12.8532609 17.0414488,12.8532609 C21.7868132,14.1217868 25.2151436,17.0203376 27.3264402,21.548913 C18.8762,20.1759153 12.6164489,19.9588973 0.163958641,21.4776374 C6.02319648,19.0842697 7.7896395,16.2094775 5.46328771,12.8532609 Z M12.0010117,7.92176312 C13.0355071,7.16482347 14.2159288,6.78462884 15.5422768,6.78117924 C16.8686247,6.77772964 17.9835226,7.15792426 18.8869705,7.92176312 L17.0140481,12.042305 L13.9045973,12.042305 L12.0010117,7.92176312 Z M5.73976422e-11,21.9203674 C2.79729447,21.9171452 26.2842687,22.0044511 27.4857517,22.0030671 C32.7758252,25.2071702 34.9441852,28.3122357 37,33.7375941 C22.7992768,32.6542814 11.7683672,36.4084167 3.90727104,45 C6.68627166,35.3425293 9.64743886,26.0972975 5.73976422e-11,21.9203674 Z M16.7367286,37.8152907 L17.0022366,42.6919135 L13.8229272,42.6741381 L13.9648071,38.9491251 C14.4997646,38.6160439 14.9628539,38.3766482 15.3540751,38.2309379 C15.7452963,38.0852277 16.2061808,37.9466786 16.7367286,37.8152907 Z" id="Combined-Shape-Copy-8" fill="#1EC3FD"></path>
    </g>
</svg>