<?xml version="1.0" encoding="UTF-8"?>
<svg width="794px" height="794px" viewBox="0 0 794 794" version="1.1" xmlns="http://www.w3.org/2000/svg" xmlns:xlink="http://www.w3.org/1999/xlink">
    <!-- Generator: Sketch 52.6 (67491) - http://www.bohemiancoding.com/sketch -->
    <title>foremast-image-blue</title>
    <desc>Created with Sketch.</desc>
    <g id="foremast-image-blue" stroke="none" stroke-width="1" fill="none" fill-rule="evenodd">
        <path d="M484.599444,387.3688 L492.73576,406.792887 C493.223276,407.019882 493.709302,407.248936 494.193813,407.480057 L463.820723,611.389679 L607.669468,648.767755 L657,648.767755 L657,657.849769 L413.333697,657.849769 L413.349792,657.97202 C409.407505,661.990673 404.124241,664 397.5,664 C390.875759,664 385.58407,661.949923 381.624935,657.849769 L137,657.849769 L137,648.767755 L187.83553,648.767755 L333.657181,610.695564 L300.448526,407.480057 C300.810861,407.296812 301.174881,407.114723 301.540564,406.933794 L301.540576,406.933788 L393.554325,189.161446 L394.319306,133.758907 C395.82064,132.181138 396.948029,131.392253 397.701473,131.392253 C398.454918,131.392253 399.527679,132.063668 400.919757,133.406496 L401.532829,189.061221 L447.922297,299.808278 C451.743176,294.974411 454.516756,291.216979 458.985506,290.993324 C463.941888,294.223879 464.644233,299.132056 461.092541,305.717853 C463.610839,307.399383 466.238829,308.766567 468.976511,309.819406 C471.809293,310.986376 471.96649,312.007745 469.448102,312.883514 L466.068163,313.192826 L466.828683,316.303504 C467.101628,315.505882 467.406257,315.130029 467.742572,315.175945 C468.078886,315.221861 468.403453,315.531995 468.716272,316.106347 L486.174254,317.583133 L487.998707,316.542706 L503.502723,318.123716 C505.275921,317.014258 506.750751,316.273293 507.927212,315.900822 C509.103673,315.52835 510.47103,315.501006 512.029283,315.81879 L514.510179,317.404659 L516.432667,319.53601 L522.874799,320.161928 C525.392561,318.741462 527.644113,318.121103 529.629456,318.300849 C531.614799,318.480596 533.180928,319.547228 534.327844,321.500747 L563.595852,324.7042 L565.080663,323.338348 C569.947965,323.939606 572.395869,324.266978 572.424377,324.320465 C574.874308,327.723849 574.444731,336.319433 569.807668,340.521897 L562.490099,338.920239 C562.099343,338.176688 561.737295,337.668021 561.403954,337.394235 C559.918948,336.957093 549.973846,335.185093 531.56865,332.078236 C530.480146,332.918805 529.520556,333.678535 528.689879,334.357425 C527.443865,335.375761 526.779819,335.982432 525.264071,336.66552 C524.547377,336.988506 528.494117,339.443745 527.215495,340.766953 C526.866053,341.12858 525.493771,343.172832 523.098649,346.899709 C517.557141,353.877506 512.939318,358.679174 509.245178,361.304716 C505.551038,363.930257 496.748414,368.823471 482.837305,375.984357 C483.053457,377.110187 483.365307,378.804132 483.772855,381.066191 C483.988607,382.263705 484.264137,384.364575 484.599444,387.3688 Z M439.502658,390.680959 C439.413462,390.161159 439.320118,389.615043 439.222534,389.040521 C437.343623,377.978514 434.350072,375.402525 432.613524,371.112531 C431.657287,368.750229 430.64091,362.908894 430.459108,360.432345 C430.256792,357.676356 431.374513,356.887063 431.64883,355.871415 C431.792889,355.338042 429.303457,356.008275 429.478567,355.43465 C430.027613,353.63609 432.207721,351.948394 435.186626,349.104046 C438.379286,346.055597 440.883819,344.263612 444.064284,341.120218 C444.252921,340.93378 445.080605,341.502269 446.416992,341.148597 C446.813949,341.043543 447.257276,340.304785 447.746973,338.932326 C446.803925,338.503006 445.839411,337.957988 444.853432,337.297273 C444.156225,336.830067 440.929768,333.073365 440.136556,332.191827 C439.607748,331.604134 438.985235,330.292891 438.269016,328.258095 L438.251132,328.069093 L437.700446,328.664008 C436.33659,326.236306 435.341953,324.636939 434.716533,323.865907 C432.968499,323.838058 431.012374,323.717255 428.848156,323.503496 C425.60183,323.182858 428.218988,318.33471 438.55049,309.79257 C442.210875,306.766144 444.92182,303.570536 447.222861,300.689186 L401.561685,191.680804 L403.678427,383.838834 C401.839313,383.768889 399.817946,383.733916 397.614324,383.733916 C395.410702,383.733916 393.161522,383.756707 390.866784,383.802288 L393.518169,191.779995 L302.888946,406.275528 C339.159828,388.804221 391.199229,382.53091 439.502658,390.680959 Z M486.116093,403.873843 C487.899012,404.617636 489.664744,405.387355 491.411956,406.18322 L484.967586,390.798369 C485.172484,392.772188 485.395084,395.013518 485.635386,397.522359 L486.116093,403.873843 Z M436.326715,438.777062 C435.783934,434.852055 435.522749,431.533489 435.543161,428.821364 C435.605774,420.501789 438.48101,415.842976 439.256928,412.416601 C440.032846,408.990226 440.211527,410.494954 440.809863,405.564154 C441.247754,401.955555 441.200878,400.703593 440.407756,395.955559 C437.683975,395.484884 434.931164,395.060974 432.149326,394.68383 L427.581245,438.235239 C430.497956,438.392512 433.413113,438.57312 436.326715,438.777062 Z M487.041961,425.251821 L489.29911,410.812685 C488.386589,410.396803 487.469694,409.987967 486.548425,409.586177 L486.827512,413.273703 L487.052788,424.355473 L487.041961,425.251821 Z M602.274182,648.767755 L463.001196,612.526621 C451.67976,617.166286 431.659397,627.178281 397.981486,627.178281 C363.721295,627.178281 344.377732,616.817085 334.014503,612.290863 L193.835512,648.767755 L382.855085,648.767755 L385.075888,632.371895 C390.559275,632.874592 394.700646,633.12594 397.5,633.12594 C400.299354,633.12594 404.459117,632.874592 409.979287,632.371895 L412.137961,648.767755 L602.274182,648.767755 Z M423.609994,438.035568 L428.209634,394.183278 C418.202095,392.996221 407.826138,392.402693 397.081764,392.402693 C385.206414,392.402693 373.829608,393.12775 362.951344,394.577863 L367.536514,438.281837 C386.291036,437.248881 404.982189,437.166791 423.609994,438.035567 Z M363.566084,438.514666 L359.0152,395.137496 C339.78154,398.044701 322.141619,403.269764 306.095437,410.812685 L311.101789,444.230375 C328.644573,441.504298 346.132672,439.599062 363.566084,438.514666 Z M390.957826,396.264738 C393.610488,396.180949 395.68679,396.137555 397.186733,396.134557 C398.686675,396.131558 400.862487,396.174258 403.714168,396.262656 L403.894298,433.695022 C400.988144,433.644485 398.773396,433.619217 397.250054,433.619217 C395.726712,433.619217 393.499319,433.608121 390.567876,433.58593 L390.957826,396.264738 Z M403.678272,167.329479 C403.665369,168.024472 403.78558,143.512403 403.824205,137.572445 C416.784896,131.680096 415.382101,126.220285 426.940325,120.270321 C438.498548,114.320357 440.627806,127.642155 466.271218,104 C462.888355,111.984426 456.301142,128.0417 432.514894,131.592348 C420.835572,133.335758 418.21274,160.489959 403.678272,167.329479 Z M513.990025,328.951545 C508.500066,327.87614 505.634417,327.443703 505.393078,327.654232 C504.779823,328.1892 506.92242,330.145376 506.414956,330.791794 C504.239719,333.562653 499.611071,338.216219 497.117181,340.328476 C494.017011,342.954237 488.33998,346.337494 480.086088,350.478247 L480.227808,352.694898 C491.970937,349.247072 499.016834,346.539386 501.365499,344.57184 C504.888497,341.62052 509.531581,336.546046 511.918856,333.842096 C513.510373,332.039463 514.200763,330.409279 513.990025,328.951545 Z M468.009133,320.536773 C468.084728,320.708126 468.719731,321.062823 470.205745,322.129509 C471.126312,322.790307 469.409334,324.063255 468.674682,324.912245 C468.244816,325.409013 468.79494,325.579937 469.349504,326.341307 C469.719213,326.848888 469.240868,327.340677 467.914469,327.816676 C468.930051,327.54998 469.518408,327.484686 469.67954,327.620793 C470.803083,328.569844 469.025795,328.901961 469.523102,329.795725 C469.989455,330.633858 470.352117,331.863088 471.085698,333.363019 C471.239485,336.340459 466.714951,336.766295 467.071702,337.441405 C467.172506,337.632166 470.620941,336.927046 472.11478,336.844077 C475.165096,336.674661 489.154576,329.665559 492.527395,327.389163 C493.631066,326.644269 493.90543,325.963739 493.350488,325.347573 L486.667602,324.160169 L485.53545,322.58408 L468.436718,320.036141 C468.385882,320.269994 468.299798,320.398032 468.178465,320.420256 C467.996466,320.453591 468.10432,320.453721 468.009133,320.536773 Z" id="Combined-Shape" fill="#1B73C8"></path>
    </g>
</svg>